# xmcd
#
# Track frame offsets: 
#        150
#        13400
#        26716
#        36833
#        48628
#        58351
#        68884
#        81414
#        94144
#        107367
#        117404
#        129700
#        140865
#        153416
#        164632
#        178030
#        188370
#        201370
#        214168
#        225753
#        236399
#        248893
#
# Disc length: 3511 seconds
#
# Revision: 0
# Processed by: cddbd v1.5.2PL0 Copyright (c) Steve Scherf et al.
# Submitted via: ExactAudioCopy v1.5
#
DISCID=420db516
DTITLE=Champion Jack Dupree - Shake Baby Shake
DYEAR=1988
DGENRE=
TTITLE0=Just Like A Woman
TTITLE1=Old Time Rock And Roll
TTITLE2=Down The Lane
TTITLE3=Dirty Woman
TTITLE4=Rocky Mountain
TTITLE5=Lonely Road Blues
TTITLE6=When I Got Married (With Mr Bear)
TTITLE7=Story Of My Life
TTITLE8=The UPS (With Mr Bear)
TTITLE9=Down The Lane
TTITLE10=Old Time Rock And Roll
TTITLE11=Story Of My Life
TTITLE12=Shake Baby Shake
TTITLE13=You're Always Cryin The Blues
TTITLE14=Woman Touble Again
TTITLE15=The Worng Woman
TTITLE16=Shake Baby Shake
TTITLE17=My Baby Like A Clock
TTITLE18=Hello Darlin'
TTITLE19=Lollipop Baby
TTITLE20=Shake Baby Shake
TTITLE21=Story Of My Life
EXTD=
EXTT0=
EXTT1=
EXTT2=
EXTT3=
EXTT4=
EXTT5=
EXTT6=
EXTT7=
EXTT8=
EXTT9=
EXTT10=
EXTT11=
EXTT12=
EXTT13=
EXTT14=
EXTT15=
EXTT16=
EXTT17=
EXTT18=
EXTT19=
EXTT20=
EXTT21=
PLAYORDER=
